<?xml version="1.0" standalone="no"?>
<!DOCTYPE svg PUBLIC "-//W3C//DTD SVG 20010904//EN"
 "http://www.w3.org/TR/2001/REC-SVG-20010904/DTD/svg10.dtd">
<svg version="1.0" xmlns="http://www.w3.org/2000/svg"
 width="75.000000pt" height="71.000000pt" viewBox="0 0 75.000000 71.000000"
 preserveAspectRatio="xMidYMid meet">
<metadata>
Created by potrace 1.10, written by Peter Selinger 2001-2011
</metadata>
<g transform="translate(0.000000,71.000000) scale(0.100000,-0.100000)"
fill="#000000" stroke="none">
<path d="M348 590 c-14 -10 -35 -42 -47 -70 -12 -28 -28 -53 -35 -56 -7 -3
-32 4 -54 16 -50 26 -79 23 -104 -10 -18 -25 -18 -28 3 -155 31 -187 13 -176
272 -173 l210 3 18 25 c11 16 26 73 39 154 l22 128 -23 24 c-27 29 -48 30 -99
4 -22 -11 -45 -20 -52 -20 -7 0 -24 25 -37 56 -21 48 -60 94 -81 94 -4 0 -19
-9 -32 -20z m86 -107 l39 -90 67 39 c77 44 90 46 90 17 0 -28 -40 -260 -46
-271 -7 -10 -401 -10 -408 0 -6 11 -46 243 -46 271 0 29 13 27 91 -18 67 -39
68 -39 75 -18 20 64 75 168 86 165 7 -3 31 -45 52 -95z"/>
<path d="M366 477 c-10 -42 -57 -137 -67 -137 -6 0 -34 16 -64 35 -31 20 -55
29 -55 22 0 -6 7 -48 15 -92 8 -44 14 -81 15 -82 0 -2 77 -3 170 -3 94 0 170
1 170 3 1 1 7 38 15 82 8 44 15 86 15 92 0 7 -24 -2 -55 -22 -30 -19 -58 -35
-64 -35 -10 0 -57 95 -67 137 -4 13 -10 23 -14 23 -4 0 -10 -10 -14 -23z m24
-96 c0 -5 12 -24 27 -41 24 -29 31 -32 65 -27 38 5 39 4 36 -21 l-3 -27 -135
0 -135 0 -3 27 c-3 25 -2 26 36 21 34 -5 41 -2 65 27 15 17 27 36 27 41 0 5 5
9 10 9 6 0 10 -4 10 -9z"/>
</g>
</svg>
